<?xml version="1.0" ?><!DOCTYPE svg  PUBLIC '-//W3C//DTD SVG 1.1//EN'  'http://www.w3.org/Graphics/SVG/1.1/DTD/svg11.dtd'><svg enable-background="new 0 0 50 50" id="Layer_1" version="1.1" viewBox="0 0 50 50" xml:space="preserve" xmlns="http://www.w3.org/2000/svg" xmlns:xlink="http://www.w3.org/1999/xlink"><g id="G_x2B_"><polygon fill="#E13719" id="_x2B__1_" points="41,23 37,23 37,19 35,19 35,23 31,23 31,25 35,25 35,29 37,29 37,25 41,25  "/><path d="M26,27c0,0-2-1.2-2-2c0,0-0.5-1.8,1-3c1.5-1.2,3-3,3-5c0-2.3-1-5-3-6h3l2.4-1c0,0-7.1,0-9.4,0   c-4.2,0-8,3.3-8,7c0,3.7,2.8,6.6,7.1,6.6c0.3,0,0.6,0,0.9,0c-0.3,0.5-0.5,1.1-0.5,1.7c0,1,0.8,2,1.5,2.7c-0.5,0-1.4,0-2,0   c-5.2,0-9,2.6-9,6c0,3.4,4.9,6,10,6c5.9,0,10-3,10-7C31,30.3,28.5,28.7,26,27z M22,23c-2.4,0-5.6-2.9-6-6c-0.4-3.1,1.6-6.1,4-6   s4.6,2.9,5,6.1C25.4,20.2,24,23,22,23z M21,38c-3.6,0-7-1.3-7-4c0-2.7,3.4-5,7-5c0.8,0,2,0,2,0c1,0,2.9,0.9,4,2c1,1,1,2.7,1,3   C28,37,26,38,21,38z" fill="#E13719" id="g_1_"/></g><path d="M25,1C11.7,1,1,11.7,1,25s10.7,24,24,24s24-10.7,24-24S38.3,1,25,1z M25,44C14.5,44,6,35.5,6,25S14.5,6,25,6  s19,8.5,19,19S35.5,44,25,44z" fill="#E13719"/></svg>